<?xml version="1.0" encoding="UTF-8" standalone="no"?>
<svg
   xmlns:dc="http://purl.org/dc/elements/1.1/"
   xmlns:cc="http://creativecommons.org/ns#"
   xmlns:rdf="http://www.w3.org/1999/02/22-rdf-syntax-ns#"
   xmlns:svg="http://www.w3.org/2000/svg"
   xmlns="http://www.w3.org/2000/svg"
   xmlns:sodipodi="http://sodipodi.sourceforge.net/DTD/sodipodi-0.dtd"
   xmlns:inkscape="http://www.inkscape.org/namespaces/inkscape"
   width="472px"
   height="472px"
   clip-rule="evenodd"
   fill-rule="evenodd"
   image-rendering="optimizeQuality"
   shape-rendering="geometricPrecision"
   text-rendering="geometricPrecision"
   version="1.1"
   viewBox="0 0 107.63 107.62"
   xml:space="preserve"
   id="svg14"
   sodipodi:docname="logo_freecad_new.svg"
   inkscape:version="0.92.3 (2405546, 2018-03-11)"><metadata
   id="metadata20"><rdf:RDF><cc:Work
       rdf:about=""><dc:format>image/svg+xml</dc:format><dc:type
         rdf:resource="http://purl.org/dc/dcmitype/StillImage" /></cc:Work></rdf:RDF></metadata><defs
   id="defs18" /><sodipodi:namedview
   pagecolor="#ffffff"
   bordercolor="#666666"
   borderopacity="1"
   objecttolerance="10"
   gridtolerance="10"
   guidetolerance="10"
   inkscape:pageopacity="0"
   inkscape:pageshadow="2"
   inkscape:window-width="1366"
   inkscape:window-height="704"
   id="namedview16"
   showgrid="false"
   inkscape:zoom="1"
   inkscape:cx="292.91959"
   inkscape:cy="540.68917"
   inkscape:window-x="0"
   inkscape:window-y="27"
   inkscape:window-maximized="1"
   inkscape:current-layer="svg14" />
 <path
   d="m98.68 72.6c-0.17 1.38-0.84 2.7-1.99 3.65l-35.53 29.32c-1.72 1.62-4.77 2.29-7.03 1.96-2.16-0.31-4.43-1.33-6.15-2.67l-9.64-7.51c-2.73-2.12-4.78-6.21-5.01-9.66l-0.3-4.5-5.46 2.68c-2.05 1-4.42 0.59-6.03-0.86l-10.62-8.76c-1.15-0.95-1.82-2.27-1.99-3.65l-8.86-57.49c-0.46-2.98 1.53-5.78 4.46-6.3l48.33-8.73c0.69-0.12 1.37-0.1 2.02 0.03l48.2 8.68c2.99 0.53 4.99 3.41 4.47 6.43z"
   fill-rule="nonzero"
   id="path2" /><path
   transform="matrix(0.22803,0,0,0.22803,0,-0.005)"
   d="m 23.988,62.602 39.029,252.91 47.451,39.16 -8.4648,-71.48 c -1.8857,-1.3595 -2.893,-4.4737 -1.709,-6.3594 1.1402,-1.8857 3.4635,-2.851 5.1738,-1.623 l 51.266,36.092 -2.543,-37.406 -0.26368,-3.7285 -0.004,-0.18555 -2.9785,-43.58 -58.545,-32.496 c -2.0611,-1.1402 -3.2886,-4.0346 -2.1484,-6.0957 1.1402,-2.0611 3.2016,-3.2009 4.8242,-2.1484 l 140.9,78.191 v -120.42 z"
   id="path4"
   inkscape:connector-curvature="0"
   style="fill:#c20202;stroke-width:4.38539982"
   sodipodi:nodetypes="ccccccccccccscccc" /><path
   d="m 447.92,62.602 -211.95,80.822 v 120.42 l 197.91,-110.47 z m -296.98,163.79 3.2461,47.494 c -1.0525,-15.393 2.5423,-32.672 11.576,-39.338 l -14.822,-8.1562 z m -48.941,56.791 8.4648,71.48 47.625,-23.33 -0.61328,-9.0781 -55.477,-39.072 z"
   id="path6"
   transform="matrix(0.22803,0,0,0.22803,0,-0.005)"
   inkscape:connector-curvature="0"
   style="fill:#8c0000;stroke-width:4.38539982"
   sodipodi:nodetypes="cccccccccccccccc" /><polygon
   points="53.81 32.7 5.47 14.27 53.81 5.56 102.14 14.27"
   id="polygon8"
   fill="#ed0000" /><path
   transform="matrix(.22803 0 0 .22803 0 -.005)"
   d="m432.27 164.08l-166.25 92.744c-16.678 9.4832-30.037 29.138-30.037 50.264l-0.04493 121.21c0 10.218 3.553 16.402 8.8594 17.674 2.3133 0.52377 4.9735 0.09062 7.1172-0.95118 0.11718-0.07686 0.24273-0.15085 0.33789-0.23242l156.65-129.28 10.393-67.404-39.775 28.111-13.375 14.471-2.5 7.5879 4.6484 11.795-6.666 12.631-10.525-0.70117-4.6484 5.9199-5.3926 21.094-8.7285 6.8848-2.0156-15.744-4.5176 1.0098-13.814 19.865-6.2715-3.5078 9.123-23.506-1.623-5.0879-15.35 5.7891 0.74609-13.463 16.357-16.621 2.6309-8.4199-6.8848-14.121 7.9824-14.822 13.068 2.6309 5.2188-6.2266 5.9199-24.602 9.4727-5.7891 1.666 19.471 4.3418-0.17578 13.375-18.812 4.8672 5.7012-8.9024 22.891 1.0527 5.3945 13.025-3.5527 39.293-27.803 11.182-72.314zm-167.48 93.43l-20.24 11.291c0.80724-0.39114 1.638-0.81566 2.5274-1.3144l17.713-9.9766zm82.762 22.412c-1.2135 0.08222-2.603 0.61201-4.127 1.6426-6.0518 4.1223-11.84 14.91-12.586 23.549-0.74551 8.6392 3.7273 11.798 9.6914 7.4121 5.9203-4.3415 11.183-14.34 12.061-22.76 0.65781-6.315-1.3985-10.09-5.0391-9.8437zm-95.729 165.16c-0.05405 0.03601-0.11509 0.07156-0.17188 0.10742 0.06191-0.03476 0.11349-0.07136 0.17188-0.10742z"
   fill="#4c7ac9"
   stroke-width="4.3854"
   id="path10" /><path
   d="m37.13 62.7c-0.21-3.12 0.28-6.34 2.48-8.2l11.94 6.63c1.47 0.81 2.49 1.15 4.79-0.14l4.42-2.49c-3.85 2.14-6.95 6.66-6.95 11.52l-0.01 27.64c0 2.33 0.81 3.74 2.02 4.03 0.53 0.12 1.14 0.02 1.63-0.22-0.36 0.25-1.03 0.49-1.46 0.56-0.36 0.06-0.71 0.06-1.09 0.01-1.21-0.18-2.52-0.75-3.57-1.57l-9.65-7.5c-1.81-1.42-2.78-4.29-2.88-5.65z"
   fill="#6d97d6"
   id="path12" />
</svg>